<svg width="87" height="78" viewBox="0 0 87 78" fill="none" xmlns="http://www.w3.org/2000/svg">
<path d="M34.6663 53.25L47.1663 57.4167C47.1663 57.4167 78.4163 51.1667 82.583 51.1667C86.7497 51.1667 86.7497 55.3333 82.583 59.5C78.4163 63.6667 63.833 76.1667 51.333 76.1667C38.833 76.1667 30.4997 69.9167 22.1663 69.9167C13.833 69.9167 1.33301 69.9167 1.33301 69.9167" stroke="black" stroke-width="2" stroke-linecap="round" stroke-linejoin="round"/>
<path d="M1.33301 44.9167C5.49967 40.75 13.833 34.5 22.1663 34.5C30.4997 34.5 50.2913 42.8333 53.4163 47C56.5413 51.1667 47.1663 57.4167 47.1663 57.4167" stroke="black" stroke-width="2" stroke-linecap="round" stroke-linejoin="round"/>
<path d="M26.333 22V5.33332C26.333 3.03214 28.1984 1.16666 30.4997 1.16666H80.4997C82.8009 1.16666 84.6663 3.03214 84.6663 5.33332V38.6667" stroke="black" stroke-width="2" stroke-linecap="round" stroke-linejoin="round"/>
<path d="M65.9163 1.16666H45.083V19.9167H65.9163V1.16666Z" fill="#2F88FF" stroke="black" stroke-width="2" stroke-linecap="round" stroke-linejoin="round"/>
</svg>
