<svg width="100" height="101" viewBox="0 0 100 101" fill="none" xmlns="http://www.w3.org/2000/svg">
<path d="M59.929 59.5C58.079 55.7333 55.0443 53.2417 50.8248 52.025C46.6054 50.8083 42.2443 50.2014 37.7415 50.2042C33.2637 50.2042 28.8818 50.8111 24.5956 52.025C20.3067 53.2417 17.2929 55.7333 15.554 59.5H59.929ZM10.179 63.6667C10.179 57.5917 13.0443 53.1347 18.7748 50.2958C24.5054 47.4569 30.8276 46.0375 37.7415 46.0375C44.6554 46.0375 50.9776 47.4569 56.7081 50.2958C62.4387 53.1347 65.304 57.5917 65.304 63.6667H10.179ZM10.179 77.4458V73.2792H65.304V77.4458H10.179ZM73.6331 91.2292V87.0625H79.4665L85.2998 30.3333H47.754L47.1915 26.1667H66.4206V9.5H70.5873V26.1667H89.8206L83.5873 87.4333C83.4318 88.5806 82.9345 89.5 82.0956 90.1917C81.2568 90.8833 80.2637 91.2292 79.1165 91.2292H73.6331ZM12.7415 91.2292C12.0137 91.2292 11.404 90.9833 10.9123 90.4917C10.4206 90 10.1748 89.3917 10.1748 88.6667V87.0625H65.304V88.6667C65.304 89.3917 65.0581 90 64.5665 90.4917C64.0748 90.9833 63.4665 91.2292 62.7415 91.2292H12.7415Z" fill="black"/>
</svg>
